<svg id="Layer_1" data-name="Layer 1" xmlns="http://www.w3.org/2000/svg" viewBox="0 0 918.46 608.88"><defs><style>.cls-1{fill:#c36;stroke-width:12px;}.cls-1,.cls-3{stroke:#000;stroke-linejoin:round;}.cls-2{fill:#fff;}.cls-3{fill:none;stroke-linecap:round;stroke-width:9px;}</style></defs><path d="M1003.41,898.44l-.53,0C931,892,894,864,864.19,841.55c-24.94-18.82-44.64-33.68-77.18-33.68h-1c-2.95,0-5.95,0-8.88,0h0a945.81,945.81,0,0,1-244-32,952.94,952.94,0,0,1-191-73.79c-111.5-57.58-176.86-119.5-191-140.46-2.83-4.18-5.48-9-3.73-13.41,5.31-13.28,10.55-15.32,20.95-18.35,3.15-.91,6.71-1.94,11.22-3.64,16.7-6.29,47.22-31.64,83.74-69.55,45.94-47.65,85.73-86.51,130.64-121.25,27.56-21.31,57-32.11,87.49-32.11A141.4,141.4,0,0,1,516.91,308l.63.17c20.19,5.27,41.06,10.72,59.69,21.78,4,2.36,7.49,3.46,11.08,3.46s7.42-1.07,12.38-3.46c30.46-14.72,56.07-23.18,80.59-26.61a170.69,170.69,0,0,1,24-1.8c24,0,44.59,6.13,62.92,18.73,39.1,26.86,70.94,59.85,94.31,85.6l1.24,1.36c21.86,24.11,44.46,49,70,69.57,12.94,10.37,32.23,24.95,50.36,31.9a381.85,381.85,0,0,1,46.26,20.91c16.66,8.86,24.07,24.36,22.65,47.4-2.53,44.23-35.56,124.7-80.71,174-9,9.84-12.3,28.21-8.76,49.14,3.21,19,13.54,49.75,44.52,88.57a6,6,0,0,1-4.69,9.74Z" transform="translate(-140.77 -295.56)"/><path d="M705.27,307.56c20.68,0,40.65,4.7,59.52,17.67,35.07,24.09,64.92,53.46,93.27,84.69,22.77,25.11,45.54,50.37,72,71.58,14.82,11.88,33.87,25.89,52,32.82a375.67,375.67,0,0,1,45.6,20.61c16.65,8.85,20.55,24.21,19.47,41.73-2.55,44.61-36.72,124-79.14,170.28-18.81,20.49-20.37,75.51,35.49,145.5C875.5,881,863.5,801.87,787,801.86h-1c-2.93,0-5.91,0-8.82,0C391.92,801.91,146.3,567,152.91,550.47c6-15,10.26-11.67,28.71-18.6,22.29-8.4,60-44.1,85.95-71,41.1-42.63,83.07-84.36,130-120.66,25.63-19.82,53.53-30.87,83.82-30.87a134.91,134.91,0,0,1,34,4.5c20.22,5.28,40.68,10.56,58.77,21.3,5,3,9.61,4.3,14.14,4.3,4.88,0,9.71-1.51,15-4.06,25.08-12.12,51.18-22.2,78.81-26.07a166,166,0,0,1,23.16-1.74m0-12v0a176.64,176.64,0,0,0-24.84,1.86c-25.15,3.52-51.32,12.15-82.36,27.15-4.05,1.95-7.15,2.86-9.77,2.86-1.55,0-4.07-.27-8-2.61-19.37-11.5-40.66-17.06-61.25-22.44l-.62-.16a147.47,147.47,0,0,0-37-4.89c-31.86,0-62.53,11.23-91.16,33.38-45.19,35-85.17,74-131.29,121.82-35.39,36.75-65.87,62.21-81.54,68.11-4.29,1.61-7.73,2.61-10.77,3.49-11.29,3.28-18.54,6.09-24.85,21.88-2.81,7,.83,13.84,4.33,19,9.72,14.37,33.05,36.64,62.41,59.55,26.41,20.62,70.55,51.73,130.84,82.87a959.48,959.48,0,0,0,192.24,74.26,952,952,0,0,0,245.56,32.22c3,0,6,0,8.93,0H787c30.53,0,49.52,14.34,73.57,32.48,30.38,22.94,68.2,51.47,141.76,58,.36,0,.72.05,1.07.05a12,12,0,0,0,9.38-19.49c-52.61-65.91-50-114.66-36-129.9,20.76-22.65,40.86-54.23,56.61-88.92,15-33,24.32-65.33,25.67-88.75.71-11.53-.59-21.14-4-29.38-4.18-10.22-11.54-18.18-21.86-23.67a385.82,385.82,0,0,0-47-21.22c-17.32-6.64-36.11-20.86-48.72-31-25.21-20.23-47.65-45-69.35-68.91L867,401.86c-23.6-26-55.75-59.31-95.37-86.52-19.35-13.31-41-19.78-66.3-19.78Z" transform="translate(-140.77 -295.56)"/><path class="cls-1" d="M1027.59,534.93c16.65,8.85,20.55,24.21,19.47,41.73-2.55,44.61-36.72,124-79.14,170.28-18.81,20.49-20.37,75.51,35.49,145.5C874.92,881,863.4,801.15,786,801.87,395.7,805.5,146.25,567.09,152.91,550.47c6-15,10.26-11.67,28.71-18.6,22.29-8.4,60-44.1,85.95-71,41.1-42.63,83.07-84.36,130-120.66,34.95-27,74.13-37.74,117.84-26.37,20.22,5.28,40.68,10.56,58.77,21.3,10.44,6.21,18.93,5.16,29.13.24,25.08-12.12,51.18-22.2,78.81-26.07,28.95-4.08,56.85-1.83,82.68,15.93,35.07,24.09,64.92,53.46,93.27,84.69,22.77,25.11,45.54,50.37,72,71.58,14.82,11.88,33.87,25.89,52,32.82A375.67,375.67,0,0,1,1027.59,534.93Zm-72.45,25.68c9.39-2.73,37.11-.39,37.77-10.14-32.07-5.16-49.14-7.47-61.2-9.42-23-3.66-27.75-5.88-82.8-23.58-33.72-10.83-60.33-19.77-89-26.61-3.21-.75-6.45-1.47-9.72-2.19-39.42-8.52-84.48-13.11-157.77-13.2h-1.53c-1.29,0-2.52,0-3.81.06-65.91.3-122,8.4-167.58,19.2-3.24.78-6.45,1.56-9.57,2.34C362,509.16,326.52,524,304.14,534.9c-18.63,9.12-28.23,15.57-28.23,15.57s139.34-27.8,183.32,27.91c0,0,157.62-18.66,233.59,6.84,10.38,3.49,14.22,31.07,29.46,42.56a107.1,107.1,0,0,0,32,16.44c1.77.57,3.6,1.11,5.46,1.62,14.31,3.84,31.23,5.58,51.18,3.81,34.38-3,57.48-14.49,75.06-28.29C915.66,598,929.55,568,955.14,560.61Z" transform="translate(-140.77 -295.56)"/><path class="cls-2" d="M756.29,503.68c0-.33,0-.6,0-.84C756.32,503.08,756.29,503.35,756.29,503.68ZM411.38,518.56c0,.66,0,1.53,0,2.52,0,11.91-1.74,44.91-20.91,49.17-23.46,5.19-52.77-.63-69.09-5.22-20.85-5.88-17.28-30.12-17.28-30.12C326.51,524,362,509.17,409.94,497.08c3.12-.78,6.33-1.56,9.57-2.34,45.63-10.8,101.67-18.9,167.58-19.2,1.29,0,2.52-.06,3.81-.06h1.53c73.29.09,118.35,4.68,157.77,13.2,3.27.72,6.51,1.44,9.72,2.19,28.65,6.84,55.26,15.78,89,26.61,55.05,17.7,59.85,19.92,82.8,23.58,0,0-2.1,11.76-5.1,15.24-6.69,7.71-21.63,9.45-37.92,3.9-12.33-4.2-16-23.85-16-23.85S871,557.65,858,566.71c-10.74,7.5-58.62,15.57-83.07,1.89C756.65,558.37,756,518,756.23,505.75c-.6,13.59-3.48,61.41-14.55,70.35-20.19,16.29-120.54,22.17-144,2.61-8.34-7-9.06-73.26-9.12-88.65,0,15.42-.87,82.05-12.36,88.38C549.74,593,440,587.83,423.71,576.76c-10-6.81-11.91-43.14-12.3-55.68C411.41,520.09,411.41,519.25,411.38,518.56Z" transform="translate(-140.77 -295.56)"/><path class="cls-2" d="M890.63,617.5c-1.5,1.29-3.06,2.61-4.68,3.87-17.58,13.8-40.68,25.26-75.06,28.29-19.95,1.77-36.87,0-51.18-3.81-.39-.12-.78-.21-1.14-.33l1-3.36s1-10.77,10.56-12.06c11.67-1.56,29.76-2.67,43.44-3.84,12.69-1,11.88,4.8,19.11,3,10.2-2.49,3.87-8.85,16.56-10.8s26.4-7.83,33.24-5.88C886.49,613.75,888.8,615,890.63,617.5Z" transform="translate(-140.77 -295.56)"/><path class="cls-2" d="M759.53,642.16l-1,3.36c-1.47-.39-2.91-.84-4.32-1.29a107.44,107.44,0,0,1-30.54-15.42c10.47-.63,23.4-.39,28.8.45C759.32,630.34,759.53,642.16,759.53,642.16Z" transform="translate(-140.77 -295.56)"/><path class="cls-3" d="M756.23,505.75c-.24,12.27.42,52.62,18.69,62.85,24.45,13.68,72.33,5.61,83.07-1.89,13-9.06,14.67-30.36,14.67-30.36s3.69,19.65,16,23.85c16.29,5.55,31.23,3.81,37.92-3.9,3-3.48,5.1-15.24,5.1-15.24-23-3.66-27.75-5.88-82.8-23.58-33.72-10.83-60.33-19.77-89-26.61-3.21-.75-6.45-1.47-9.72-2.19-39.42-8.52-84.48-13.11-157.77-13.2H590.9c-1.29,0-2.52,0-3.81.06-65.91.3-122,8.4-167.58,19.2-3.24.78-6.45,1.56-9.57,2.34C362,509.17,326.51,524,304.13,534.91c0,0-3.57,24.24,17.28,30.12,16.32,4.59,45.63,10.41,69.09,5.22,19.17-4.26,20.91-37.26,20.91-49.17" transform="translate(-140.77 -295.56)"/><path class="cls-3" d="M756.35,502.15s0,.12,0,.39v.3c0,.24,0,.51,0,.84" transform="translate(-140.77 -295.56)"/><path class="cls-3" d="M756.29,503.68c0-.33,0-.6,0-.84" transform="translate(-140.77 -295.56)"/><path class="cls-3" d="M756.29,503.68c0,.33,0,.72,0,1.14s0,.6,0,.93" transform="translate(-140.77 -295.56)"/><path class="cls-3" d="M588.56,486.82v3.24c.06,15.39.78,81.69,9.12,88.65,23.46,19.56,123.81,13.68,144-2.61,11.07-8.94,14-56.76,14.55-70.35" transform="translate(-140.77 -295.56)"/><path class="cls-3" d="M411.41,521.08c.39,12.54,2.28,48.87,12.3,55.68,16.29,11.07,126,16.23,152.49,1.68,11.49-6.33,12.33-73,12.36-88.38" transform="translate(-140.77 -295.56)"/><path class="cls-3" d="M411.38,518.56c0,.66,0,1.53,0,2.52,0-1,0-1.83,0-2.52,0-1.11,0-1.74,0-1.74" transform="translate(-140.77 -295.56)"/></svg>